<svg viewBox="0 0 568.8 570.55" xmlns="http://www.w3.org/2000/svg" xmlns:xlink="http://www.w3.org/1999/xlink">
 <style>
  polygon {
    stroke: none;
    fill: transparent;
    transition: filter 0.2s ease-in-out;
  }
  a:hover polygon {
    filter: drop-shadow(0 0 6px rgba(0, 128, 255, 0.8));
    fill: rgba(0, 128, 255, 0.2);
  }
 </style>
<a xlink:href="#segment01" target="_blank">
<title>01 – Segment</title>
<polygon id="Segment_01" points="280 35.37 295.5 35.37 307.75 35.37 320 36.75 332.75 39 345 41.75 355 44.5 364.5 47.5 374.75 51.75 384 55.75 391.25 59 399.25 62.5 405 65.75 411.75 69.75 419.5 74.75 429.5 81.5 319.5 236.25 312.75 232.25 303.25 228.75 293.25 226.5 283 226.34 280 35.37" />
</a>
<a xlink:href="#segment02" target="_blank">
<title>02 – Segment</title>
<polygon id="Segment_02" points="518.97 199.62 511.09 180.22 502.09 161.09 490.28 142.25 479.59 127.91 468.91 116.09 456.25 103.72 447.53 95.56 439.94 88.53 429.5 81.5 319.5 236.25 328.84 243.22 334.75 250.53 339.53 257.28 342.34 264.87 518.97 199.62" />
</a>
<a xlink:href="#segment03" target="_blank">
<title>03 – Segment</title>
<polygon id="Segment_03" points="343.19 301.44 346 291.31 346 282.03 344.59 272.19 342.34 264.87 518.97 199.62 525.16 217.06 527.97 228.87 530.78 243.78 532.47 255.59 534.16 268.53 534.16 287.09 534.16 305.94 531.34 324.5 527.69 339.69 524.03 355.44 343.19 301.44" />
</a>
<a xlink:href="#segment04" target="_blank">
<title>04 – Segment</title>
<polygon id="Segment_04" points="431.5 484.53 440.78 479.47 450.06 471.31 459.34 462.59 466.37 455 475.37 445.72 481.84 437 491.69 423.78 500.69 409.72 505.47 401.28 509.97 391.72 513.62 383.84 516.44 376.53 520.37 366.69 524.03 355.44 343.19 301.44 339.25 312.12 332.78 320.28 328 325.34 319.56 331.81 431.5 484.53" />
</a>
<a xlink:href="#segment05" target="_blank">
<title>05 – Segment</title>
<polygon id="Segment_05" points="286.09 341.94 299.87 339.97 309.72 337.16 319.56 331.81 431.5 484.53 410.97 499.72 392.97 509.28 381.44 514.62 368.22 519.97 355.56 523.62 339.81 528.12 328 529.81 315.91 532.06 302.97 533.75 293.69 533.75 286.09 533.75 286.09 341.94" />
</a>
<a xlink:href="#segment06" target="_blank">
<title>06 – Segment</title>
<polygon id="Segment_06" points="252.34 331.81 260.5 336.03 269.5 339.41 276.25 341.09 286.09 341.94 286.09 533.75 264.44 533.75 247.84 531.5 229 528.12 216.34 524.75 205.09 520.81 190.47 515.75 178.94 510.41 168.25 505.34 159.25 500.28 150.53 494.94 137.59 485.94 252.34 331.81" />
</a>
<a xlink:href="#segment07" target="_blank">
<title>07 – Segment</title>
<polygon id="Segment_07" points="229.84 303.41 235.47 314.66 242.22 323.09 252.34 331.81 137.59 485.94 113.41 466.25 98.22 450.5 85.28 435.59 73.19 417.59 63.62 401 57.16 387.22 51.53 374.28 47.03 362.75 229.84 303.41" />
</a>
<a xlink:href="#segment08" target="_blank">
<title>08 – Segment</title>
<polygon id="Segment_08" points="228.44 267.69 226.47 279.78 226.47 290.47 228.44 299.47 229.84 303.41 47.03 362.75 38.59 327.87 34.94 298.62 34.94 275.56 34.94 262.62 37.19 248.56 40 232.53 42.53 222.41 47.03 207.5 228.44 267.69" />
</a>
<a xlink:href="#segment09" target="_blank">
<title>09 – Segment</title>
<polygon id="Segment_09" points="235.19 252.78 241.09 245.75 247.84 239.84 134.78 84.87 118.19 98.09 105.53 109.34 95.41 120.59 87.53 131 81.06 139.72 74.87 147.87 69.81 156.03 65.03 165.31 59.69 175.44 56.59 183.03 52.66 191.75 49.56 199.62 47.03 207.5 228.44 267.69 231.53 260.66 235.19 252.78" />
</a>
<a xlink:href="#segment10" target="_blank">
<title>10 – Segment</title>
<polygon id="Segment_10" points="134.78 84.87 142.37 79.53 147.44 75.87 154.75 71.09 160.66 67.72 166 64.62 172.19 61.53 178.37 58.44 185.12 55.34 192.16 52.53 198.91 50 206.22 46.91 212.69 44.94 220.28 42.97 226.19 41.56 232.94 39.87 240.25 38.19 249.53 36.78 257.69 35.37 277.37 35.37 283 226.34 272.31 226.34 264.16 230 256.84 233.94 247.84 239.84 134.78 84.87" />
</a>
</svg>